opsz8_wght100_wdth50.ufo
<glyph name="A" format="2">
	<unicode hex="0041"/>
	<advance width="1379"/>
	<outline>
		<contour>
			<point x="-80.5323486328" y="0" type="line"/>
			<point x="-80.5323486328" y="99.9997558594" type="line"/>
			<point x="87.5821533203" y="134.9997558594" type="line"/>
			<point x="246.1597290039" y="569.4576416016" type="line"/>
			<point x="586.950378418" y="1508" type="line"/>
			<point x="738.15234375" y="1508" type="line"/>
			<point x="1053.4526977539" y="656.879699707" type="line"/>
			<point x="1249.5322265625" y="133.9997558594" type="line"/>
			<point x="1440.2044677734" y="99.9997558594" type="line"/>
			<point x="1440.2044677734" y="0" type="line"/>
			<point x="853.4196777344" y="0" type="line"/>
			<point x="854.4196777344" y="99.9997558594" type="line"/>
			<point x="1050.2361450195" y="138.9997558594" type="line"/>
			<point x="902.7245483398" y="555.6860961914" type="line"/>
			<point x="779" y="1132" type="line"/>
			<point x="742" y="1246" type="line"/>
			<point x="732" y="1246" type="line"/>
			<point x="695" y="1132" type="line"/>
			<point x="369.3372802734" y="573.6129150391" type="line"/>
			<point x="223.5476074219" y="138.9997558594" type="line"/>
			<point x="426.0756225586" y="99.9997558594" type="line"/>
			<point x="426.0756225586" y="0" type="line"/>
		</contour>
		<contour>
			<point x="549.4689941406" y="663.2904052734" type="line"/>
			<point x="982.7183837891" y="618.7418823242" type="line"/>
			<point x="1022.7450561523" y="494.0651245117" type="line"/>
			<point x="549.4689941406" y="540.1302490234" type="line"/>
		</contour>
		<contour>
			<point x="262.5914306641" y="492.0651245117" type="line"/>
			<point x="307.0060424805" y="617.5483398438" type="line"/>
			<point x="549.4689941406" y="663.2904052734" type="line"/>
			<point x="549.4689941406" y="540.1302490234" type="line"/>
		</contour>
	</outline>
	<anchor name="bottom" x="735" y="0"/>
	<anchor name="ogonek" x="1318" y="0"/>
	<anchor name="tonos" x="492" y="1500"/>
	<anchor name="top" x="753" y="1500"/>
</glyph>
<glyph name="D" format="2">
	<unicode hex="0044"/>
	<advance width="1605"/>
	<outline>
		<contour>
			<point x="82.0052490234" y="0" type="line"/>
			<point x="82.0052490234" y="98.9997558594" type="line"/>
			<point x="290.0042724609" y="133.9997558594" type="line"/>
			<point x="292.7717285156" y="754" type="line"/>
			<point x="290.0042724609" y="1368.1602783203" type="line"/>
			<point x="82.0052490234" y="1402.1602783203" type="line"/>
			<point x="82.0052490234" y="1500" type="line"/>
			<point x="803.4118041992" y="1500" type="line" smooth="yes"/>
			<point x="1110.7724609375" y="1500"/>
			<point x="1521.7075805664" y="1119"/>
			<point x="1521.7075805664" y="778" type="qcurve" smooth="yes"/>
			<point x="1521.7075805664" y="410"/>
			<point x="1093.0012817383" y="0"/>
			<point x="771.7078857422" y="0" type="qcurve" smooth="yes"/>
		</contour>
		<contour>
			<point x="469.3892211914" y="137.9025878906" type="line"/>
			<point x="500.2886962891" y="133.0961303711"/>
			<point x="666.6663818359" y="116.9025878906"/>
			<point x="747.1952514648" y="116.9025878906" type="qcurve" smooth="yes"/>
			<point x="1041.2510986328" y="116.9025878906"/>
			<point x="1325.8848266602" y="432.8391113281"/>
			<point x="1329.1016235352" y="770" type="qcurve" smooth="yes"/>
			<point x="1331.4058227539" y="1078.0385742188"/>
			<point x="989.7559204102" y="1379.1619873047"/>
			<point x="707.9277954102" y="1379.1619873047" type="qcurve" smooth="yes"/>
			<point x="654.3141479492" y="1379.1619873047"/>
			<point x="505.5868530273" y="1370.9684448242"/>
			<point x="469.3892211914" y="1366.1619873047" type="qcurve"/>
			<point x="465.6217651367" y="762" type="line"/>
		</contour>
	</outline>
	<anchor name="bottom" x="686" y="0"/>
	<anchor name="center" x="438" y="754"/>
	<anchor name="top" x="686" y="1500"/>
	<anchor name="liga" x="1590" y="0"/>
</glyph>
<glyph name="G" format="2">
	<unicode hex="0047"/>
	<advance width="1655"/>
	<outline>
		<contour>
			<point x="82.001953125" y="710" type="qcurve" smooth="yes"/>
			<point x="82.001953125" y="1122"/>
			<point x="515.4873657227" y="1513"/>
			<point x="848.8698730469" y="1513" type="qcurve" smooth="yes"/>
			<point x="971.5639038086" y="1513"/>
			<point x="1133.3089599609" y="1462.9354248047"/>
			<point x="1206.625" y="1401.8708496094" type="qcurve"/>
			<point x="1235.4224853516" y="1500" type="line"/>
			<point x="1340.0069580078" y="1500" type="line"/>
			<point x="1340.0069580078" y="1015.9736328125" type="line"/>
			<point x="1215.8151855469" y="1015.9736328125" type="line"/>
			<point x="1199.05859375" y="1211" type="line" smooth="yes"/>
			<point x="1194.05859375" y="1293"/>
			<point x="995.7406616211" y="1377.6459350586"/>
			<point x="843.8709106445" y="1377.6459350586" type="qcurve" smooth="yes"/>
			<point x="597.5309448242" y="1377.6459350586"/>
			<point x="271.6079101562" y="1037.3658447266"/>
			<point x="273.6079101562" y="721" type="qcurve" smooth="yes"/>
			<point x="273.6079101562" y="420.5333251953"/>
			<point x="617.1658325195" y="109.0638427734"/>
			<point x="911.0280151367" y="110.0638427734" type="qcurve" smooth="yes"/>
			<point x="1008.2114257812" y="110.0638427734"/>
			<point x="1194.6245117188" y="164.3542480469"/>
			<point x="1256.22265625" y="200.7736206055" type="qcurve"/>
			<point x="1256.22265625" y="559.0002441406" type="line"/>
			<point x="1061.5216674805" y="586.0002441406" type="line"/>
			<point x="1061.5216674805" y="692" type="line"/>
			<point x="1596.047668457" y="692" type="line"/>
			<point x="1596.047668457" y="586.0002441406" type="line"/>
			<point x="1429.1540527344" y="559.0002441406" type="line"/>
			<point x="1429.1540527344" y="127" type="line"/>
			<point x="1347.826965332" y="57"/>
			<point x="1070.3671264648" y="-21"/>
			<point x="885.3303833008" y="-21" type="qcurve" smooth="yes"/>
			<point x="537.3395385742" y="-21"/>
			<point x="82.001953125" y="359"/>
		</contour>
	</outline>
	<anchor name="bottom" x="872" y="0"/>
	<anchor name="top" x="836" y="1500"/>
</glyph>
<glyph name="H" format="2">
	<unicode hex="0048"/>
	<advance width="1740"/>
	<outline>
		<contour>
			<point x="82.0052490234" y="0" type="line"/>
			<point x="82.0052490234" y="99.9997558594" type="line"/>
			<point x="290.0042724609" y="134.9997558594" type="line"/>
			<point x="292.7717285156" y="754" type="line"/>
			<point x="290.0042724609" y="1368.1602783203" type="line"/>
			<point x="82.0052490234" y="1402.1602783203" type="line"/>
			<point x="82.0052490234" y="1500" type="line"/>
			<point x="678.3882446289" y="1500" type="line"/>
			<point x="678.3882446289" y="1402.1602783203" type="line"/>
			<point x="470.3892211914" y="1368.1602783203" type="line"/>
			<point x="467.6217651367" y="754" type="line"/>
			<point x="470.3892211914" y="134.9997558594" type="line"/>
			<point x="678.3882446289" y="99.9997558594" type="line"/>
			<point x="678.3882446289" y="0" type="line"/>
		</contour>
		<contour>
			<point x="405.0048828125" y="721.8068237305" type="line"/>
			<point x="405.0048828125" y="853.9996337891" type="line"/>
			<point x="890.7319335938" y="844.4512939453" type="line"/>
			<point x="1347.0690917969" y="853.9996337891" type="line"/>
			<point x="1347.0690917969" y="721.8068237305" type="line"/>
			<point x="890.7319335938" y="721.8068237305" type="line"/>
		</contour>
		<contour>
			<point x="1062.0694580078" y="0" type="line"/>
			<point x="1062.0694580078" y="99.9997558594" type="line"/>
			<point x="1270.0684814453" y="134.9997558594" type="line"/>
			<point x="1272.8359375" y="754" type="line"/>
			<point x="1270.0684814453" y="1368.1602783203" type="line"/>
			<point x="1062.0694580078" y="1402.1602783203" type="line"/>
			<point x="1062.0694580078" y="1500" type="line"/>
			<point x="1658.4524536133" y="1500" type="line"/>
			<point x="1658.4524536133" y="1402.1602783203" type="line"/>
			<point x="1450.4534301758" y="1368.1602783203" type="line"/>
			<point x="1447.6859741211" y="754" type="line"/>
			<point x="1450.4534301758" y="134.9997558594" type="line"/>
			<point x="1658.4524536133" y="99.9997558594" type="line"/>
			<point x="1658.4524536133" y="0" type="line"/>
		</contour>
	</outline>
	<anchor name="bottom" x="870" y="0"/>
	<anchor name="center" x="870" y="1079"/>
	<anchor name="top" x="870" y="1500"/>
	<anchor name="tonos" x="0" y="1500"/>
	<anchor name="cy_descender" x="1658" y="100"/>
</glyph>
<glyph name="I" format="2">
	<unicode hex="0049"/>
	<advance width="787"/>
	<outline>
		<contour>
			<point x="93.6605224609" y="0" type="line"/>
			<point x="93.6605224609" y="99.9997558594" type="line"/>
			<point x="303.1018066406" y="134.9997558594" type="line"/>
			<point x="305.8692626953" y="754" type="line"/>
			<point x="303.1018066406" y="1368.1602783203" type="line"/>
			<point x="93.6605224609" y="1402.1602783203" type="line"/>
			<point x="93.6605224609" y="1500" type="line"/>
			<point x="692.9280395508" y="1500" type="line"/>
			<point x="692.9280395508" y="1402.1602783203" type="line"/>
			<point x="483.4867553711" y="1368.1602783203" type="line"/>
			<point x="480.7192993164" y="754" type="line"/>
			<point x="483.4867553711" y="133.9997558594" type="line"/>
			<point x="692.9280395508" y="99.9997558594" type="line"/>
			<point x="692.9280395508" y="0" type="line"/>
		</contour>
	</outline>
	<anchor name="bottom" x="390" y="0"/>
	<anchor name="ogonek" x="526" y="0"/>
	<anchor name="top" x="390" y="1500"/>
	<anchor name="tonos" x="0" y="1500"/>
	<anchor name="yu_dash" x="380" y="755"/>
	<anchor name="_Yeru_I" x="82" y="0"/>
	<anchor name="liga" x="780" y="0"/>
</glyph>
<glyph name="K" format="2">
	<unicode hex="004B"/>
	<advance width="1451"/>
	<outline>
		<contour>
			<point x="82.0052490234" y="0" type="line"/>
			<point x="82.0052490234" y="99.9997558594" type="line"/>
			<point x="290.0042724609" y="134.9997558594" type="line"/>
			<point x="292.0042724609" y="754" type="line"/>
			<point x="290.0042724609" y="1368.1602783203" type="line"/>
			<point x="82.0052490234" y="1402.1602783203" type="line"/>
			<point x="82.0052490234" y="1500" type="line"/>
			<point x="696.9459838867" y="1500" type="line"/>
			<point x="696.9459838867" y="1402.1602783203" type="line"/>
			<point x="470.3892211914" y="1368.1602783203" type="line"/>
			<point x="467.6217651367" y="754" type="line"/>
			<point x="470.3892211914" y="134.9997558594" type="line"/>
			<point x="678.3882446289" y="99.9997558594" type="line"/>
			<point x="678.3882446289" y="0" type="line"/>
		</contour>
		<contour>
			<point x="383.3291625977" y="438.9853515625" type="line"/>
			<point x="386.3291625977" y="573.9708862305" type="line"/>
			<point x="1081.4921875" y="1392.1602783203" type="line"/>
			<point x="900.2909545898" y="1402.1602783203" type="line"/>
			<point x="900.2909545898" y="1500" type="line"/>
			<point x="1402.453918457" y="1500" type="line"/>
			<point x="1402.453918457" y="1402.1602783203" type="line"/>
			<point x="1214.7816772461" y="1382.1602783203" type="line"/>
			<point x="745.6672363281" y="822.7220458984" type="line"/>
			<point x="725.3784179688" y="805.6021728516" type="line"/>
		</contour>
		<contour>
			<point x="649.9794311523" y="821.9406738281" type="line"/>
			<point x="758.9783935547" y="927.8392333984" type="line"/>
			<point x="1302.8187866211" y="133.9997558594" type="line"/>
			<point x="1524.4622802734" y="99.9997558594" type="line"/>
			<point x="1524.4622802734" y="0" type="line"/>
			<point x="922.9943847656" y="0" type="line"/>
			<point x="922.9943847656" y="99.9997558594" type="line"/>
			<point x="1106.2243652344" y="133.9997558594" type="line"/>
		</contour>
	</outline>
	<anchor name="bottom" x="812" y="0"/>
	<anchor name="top" x="770" y="1500"/>
</glyph>
<glyph name="L" format="2">
	<unicode hex="004C"/>
	<advance width="1250"/>
	<outline>
		<contour>
			<point x="82.0052490234" y="0" type="line"/>
			<point x="82.0052490234" y="99.9997558594" type="line"/>
			<point x="291.0042724609" y="137.9997558594" type="line"/>
			<point x="292.0042724609" y="754" type="line"/>
			<point x="290.0042724609" y="1368.1602783203" type="line"/>
			<point x="64.0052490234" y="1402.1602783203" type="line"/>
			<point x="64.0052490234" y="1500" type="line"/>
			<point x="718.7054443359" y="1500" type="line"/>
			<point x="718.7054443359" y="1402.1602783203" type="line"/>
			<point x="470.3892211914" y="1368.1602783203" type="line"/>
			<point x="467.6217651367" y="754" type="line"/>
			<point x="468.3892211914" y="149.5477905273" type="line"/>
			<point x="481.3892211914" y="126.5477905273" type="line"/>
			<point x="1010.4224243164" y="126.5477905273" type="line"/>
			<point x="1081.4224243164" y="476.5094604492" type="line"/>
			<point x="1194.2619018555" y="476.5094604492" type="line"/>
			<point x="1162.9393920898" y="0" type="line"/>
		</contour>
	</outline>
	<anchor name="bottom" x="705" y="0"/>
	<anchor name="centerright" x="928" y="750"/>
	<anchor name="top" x="632" y="1500"/>
	<anchor name="topright" x="784" y="1001"/>
	<anchor name="center" x="378" y="750"/>
	<anchor name="liga" x="1264" y="0"/>
</glyph>
<glyph name="M" format="2">
	<unicode hex="004D"/>
	<advance width="1926"/>
	<outline>
		<contour>
			<point x="93.0052490234" y="0" type="line"/>
			<point x="93.0052490234" y="99.9997558594" type="line"/>
			<point x="279.0042724609" y="134.9997558594" type="line"/>
			<point x="285.0042724609" y="753" type="line"/>
			<point x="283.0042724609" y="1368.1602783203" type="line"/>
			<point x="93.0052490234" y="1402.1602783203" type="line"/>
			<point x="93.0052490234" y="1500" type="line"/>
			<point x="521.9204101562" y="1501.6021728516" type="line"/>
			<point x="742.0274047852" y="801.2700805664" type="line"/>
			<point x="1004" y="370" type="line"/>
			<point x="1046" y="256" type="line"/>
			<point x="1056" y="256" type="line"/>
			<point x="1098" y="370" type="line"/>
			<point x="1156.878112793" y="816.6603393555" type="line"/>
			<point x="1387.594909668" y="1500" type="line"/>
			<point x="1843.5643920898" y="1500" type="line"/>
			<point x="1843.5643920898" y="1402.1602783203" type="line"/>
			<point x="1636.5653686523" y="1368.1602783203" type="line"/>
			<point x="1635.3364868164" y="754" type="line"/>
			<point x="1636.5653686523" y="134.9997558594" type="line"/>
			<point x="1843.5643920898" y="99.9997558594" type="line"/>
			<point x="1843.5643920898" y="0" type="line"/>
			<point x="1262.3895263672" y="0" type="line"/>
			<point x="1263.076171875" y="99.9997558594" type="line"/>
			<point x="1461.7153320312" y="134.9997558594" type="line"/>
			<point x="1463.7153320312" y="753" type="line"/>
			<point x="1646" y="1210" type="line"/>
			<point x="1650" y="1329" type="line"/>
			<point x="1640" y="1331" type="line"/>
			<point x="1601" y="1224" type="line"/>
			<point x="1258.8436279297" y="766.8801269531" type="line"/>
			<point x="988.8881225586" y="-18.8955688477" type="line"/>
			<point x="820.2197875977" y="-18.8955688477" type="line"/>
			<point x="582.436340332" y="726.8310546875" type="line"/>
			<point x="458" y="1229" type="line"/>
			<point x="418" y="1336" type="line"/>
			<point x="408" y="1334" type="line"/>
			<point x="413" y="1215" type="line"/>
			<point x="396.487487793" y="753" type="line"/>
			<point x="403.487487793" y="134.9997558594" type="line"/>
			<point x="605.9287719727" y="99.9997558594" type="line"/>
			<point x="605.9287719727" y="0" type="line"/>
		</contour>
	</outline>
	<anchor name="bottom" x="1025" y="0"/>
	<anchor name="top" x="1058" y="1500"/>
</glyph>
<glyph name="N" format="2">
	<unicode hex="004E"/>
	<advance width="1568"/>
	<outline>
		<contour>
			<point x="98.0052490234" y="0" type="line"/>
			<point x="98.0052490234" y="99.9997558594" type="line"/>
			<point x="270.0042724609" y="133.9997558594" type="line"/>
			<point x="274.0042724609" y="753" type="line"/>
			<point x="270.0042724609" y="1368.1602783203" type="line"/>
			<point x="98.0052490234" y="1402.1602783203" type="line"/>
			<point x="98.0052490234" y="1500" type="line"/>
			<point x="468.7872924805" y="1500" type="line"/>
			<point x="855.6493530273" y="860.9264526367" type="line"/>
			<point x="1148" y="412" type="line"/>
			<point x="1206" y="310" type="line"/>
			<point x="1215" y="313" type="line"/>
			<point x="1211" y="434" type="line"/>
			<point x="1208.205871582" y="751" type="line"/>
			<point x="1198.6636352539" y="1368.1602783203" type="line"/>
			<point x="1021.780090332" y="1402.1602783203" type="line"/>
			<point x="1021.780090332" y="1500" type="line"/>
			<point x="1493.2427368164" y="1500" type="line"/>
			<point x="1493.2427368164" y="1402.1602783203" type="line"/>
			<point x="1320.2437133789" y="1368.1602783203" type="line"/>
			<point x="1317.2437133789" y="753" type="line"/>
			<point x="1322.2437133789" y="-8" type="line"/>
			<point x="1184.6850585938" y="-8" type="line"/>
			<point x="685.8741455078" y="808.6543579102" type="line"/>
			<point x="472" y="1219" type="line"/>
			<point x="414" y="1321" type="line"/>
			<point x="405" y="1318" type="line"/>
			<point x="410" y="1198" type="line"/>
			<point x="382.9714355469" y="756" type="line"/>
			<point x="392.9714355469" y="133.9997558594" type="line"/>
			<point x="563.4127197266" y="99.9997558594" type="line"/>
			<point x="563.4127197266" y="0" type="line"/>
		</contour>
	</outline>
	<anchor name="bottom" x="800" y="0"/>
	<anchor name="top" x="800" y="1500"/>
	<anchor name="engtail" x="1324" y="0"/>
	<anchor name="liga" x="1600" y="0"/>
</glyph>
<glyph name="P" format="2">
	<unicode hex="0050"/>
	<advance width="1358"/>
	<outline>
		<contour>
			<point x="84.0052490234" y="0" type="line"/>
			<point x="84.0052490234" y="98.9997558594" type="line"/>
			<point x="290.0042724609" y="131.9997558594" type="line"/>
			<point x="293.3801269531" y="762" type="line"/>
			<point x="291.0042724609" y="1368.1602783203" type="line"/>
			<point x="82.0052490234" y="1402.1602783203" type="line"/>
			<point x="82.0052490234" y="1500" type="line"/>
			<point x="796.5427856445" y="1500" type="line" smooth="yes"/>
			<point x="1020.9501342773" y="1500"/>
			<point x="1278.3714599609" y="1286"/>
			<point x="1278.3714599609" y="1076" type="qcurve" smooth="yes"/>
			<point x="1278.3714599609" y="868"/>
			<point x="1004.1558837891" y="595.2260131836"/>
			<point x="742.7679443359" y="595.2260131836" type="qcurve" smooth="yes"/>
			<point x="635.7361450195" y="595.2260131836"/>
			<point x="440.0631713867" y="623.0324707031"/>
			<point x="387.9907226562" y="634.0647583008" type="qcurve"/>
			<point x="392.4442749023" y="746.4190063477" type="line"/>
			<point x="454.5114746094" y="731.6125488281"/>
			<point x="609.5715942383" y="712.7415161133"/>
			<point x="711.8364257812" y="712.7415161133" type="qcurve" smooth="yes"/>
			<point x="884.9077148438" y="712.7415161133"/>
			<point x="1102.0678710938" y="892.0010986328"/>
			<point x="1102.0678710938" y="1079" type="qcurve" smooth="yes"/>
			<point x="1102.0678710938" y="1243.2027587891"/>
			<point x="901.8909301758" y="1369.516784668"/>
			<point x="721.1527099609" y="1369.516784668" type="qcurve" smooth="yes"/>
			<point x="491.7729492188" y="1369.516784668" type="line"/>
			<point x="467.7729492188" y="1349.516784668" type="line"/>
			<point x="465.6217651367" y="766" type="line"/>
			<point x="468.3892211914" y="136.9997558594" type="line"/>
			<point x="697.2727661133" y="99.9997558594" type="line"/>
			<point x="697.2727661133" y="0" type="line"/>
		</contour>
	</outline>
	<anchor name="bottom" x="634" y="0"/>
	<anchor name="top" x="634" y="1500"/>
</glyph>
<glyph name="Q" format="2">
	<unicode hex="0051"/>
	<advance width="1659"/>
	<outline>
		<contour>
			<point x="81.001953125" y="742.5209960938" type="qcurve" smooth="yes"/>
			<point x="81.001953125" y="1069.3916015625"/>
			<point x="503.981262207" y="1520"/>
			<point x="828.7153930664" y="1520" type="qcurve" smooth="yes"/>
			<point x="1164.5637207031" y="1520"/>
			<point x="1578.4847412109" y="1099"/>
			<point x="1578.4847412109" y="756" type="qcurve" smooth="yes"/>
			<point x="1578.4847412109" y="429"/>
			<point x="1156.9545288086" y="-22"/>
			<point x="833.7852172852" y="-22" type="qcurve" smooth="yes"/>
			<point x="504.4558105469" y="-22"/>
			<point x="81.001953125" y="412.734375"/>
		</contour>
		<contour>
			<point x="266.9916381836" y="779.4790039062" type="qcurve" smooth="yes"/>
			<point x="266.9916381836" y="475.5627441406"/>
			<point x="572.0412597656" y="113.6444702148"/>
			<point x="833.4828491211" y="113.4509277344" type="qcurve" smooth="yes"/>
			<point x="1100.0824584961" y="113.2573852539"/>
			<point x="1394.4950561523" y="443.0225830078"/>
			<point x="1394.4950561523" y="753" type="qcurve" smooth="yes"/>
			<point x="1394.4950561523" y="1037.8143310547"/>
			<point x="1098.1143798828" y="1381.2588500977"/>
			<point x="834.6201171875" y="1381.2588500977" type="qcurve" smooth="yes"/>
			<point x="563.6169433594" y="1381.2588500977"/>
			<point x="266.9916381836" y="1061.3341064453"/>
		</contour>
		<contour>
			<point x="585.4682006836" y="-39.128112793" type="qcurve"/>
			<point x="1225.9567871094" y="-262.276550293" type="line"/>
			<point x="1300.3232421875" y="-258.8205566406"/>
			<point x="1362.1325073242" y="-169.3633422852"/>
			<point x="1400.4454345703" y="-84.5485229492" type="qcurve"/>
			<point x="1505.9288330078" y="-144.4514770508" type="line"/>
			<point x="1461.5354614258" y="-259.069152832"/>
			<point x="1296.6748046875" y="-429.8013305664"/>
			<point x="1165.7443847656" y="-423.1926879883" type="qcurve"/>
			<point x="566.3444824219" y="-215.1014404297" type="line"/>
			<point x="478.1444702148" y="-220.9077148438"/>
			<point x="383.8881225586" y="-273.2745361328"/>
			<point x="335.2088623047" y="-340.1510009766" type="qcurve"/>
			<point x="255.5640258789" y="-251.0867919922" type="line"/>
			<point x="295.7873535156" y="-160.3999633789"/>
			<point x="504.5360107422" y="-40.0316162109"/>
		</contour>
		<contour>
			<point x="532.5899658203" y="-79.2122192383" type="line"/>
			<point x="633.794128418" y="61.8452758789" type="line"/>
			<point x="712.1018676758" y="6.3226928711" type="line"/>
			<point x="633.1190185547" y="-107.5315551758" type="line"/>
		</contour>
	</outline>
	<anchor name="bottom" x="832" y="0"/>
	<anchor name="top" x="823" y="1502"/>
</glyph>
<glyph name="R" format="2">
	<unicode hex="0052"/>
	<advance width="1420"/>
	<outline>
		<contour>
			<point x="84.3150024414" y="0" type="line"/>
			<point x="84.3150024414" y="98.9997558594" type="line"/>
			<point x="290.3140258789" y="132.9997558594" type="line"/>
			<point x="293.3140258789" y="732" type="line"/>
			<point x="291.3140258789" y="1368.1602783203" type="line"/>
			<point x="82.3150024414" y="1402.1602783203" type="line"/>
			<point x="82.3150024414" y="1500" type="line"/>
			<point x="808.0084838867" y="1500" type="line" smooth="yes"/>
			<point x="1004.0592041016" y="1500"/>
			<point x="1223.6284790039" y="1295"/>
			<point x="1223.6284790039" y="1106" type="qcurve" smooth="yes"/>
			<point x="1223.6284790039" y="916"/>
			<point x="1015.0056762695" y="693.1291503906"/>
			<point x="770.3565673828" y="693.1291503906" type="qcurve" smooth="yes"/>
			<point x="702.9662475586" y="693.1291503906"/>
			<point x="459.6907958984" y="696.9033203125"/>
			<point x="381.8616333008" y="699.6774902344" type="qcurve"/>
			<point x="381.8616333008" y="813.3544311523" type="line"/>
			<point x="721.0827636719" y="810.3544311523" type="line" smooth="yes"/>
			<point x="901.6807861328" y="808.3544311523"/>
			<point x="1037.3364257812" y="945.2457275391"/>
			<point x="1037.3364257812" y="1100" type="qcurve" smooth="yes"/>
			<point x="1037.3364257812" y="1237.6727294922"/>
			<point x="919.4771118164" y="1369.516784668"/>
			<point x="752.7388916016" y="1369.516784668" type="qcurve" smooth="yes"/>
			<point x="491.1640625" y="1369.516784668" type="line"/>
			<point x="466.1640625" y="1349.516784668" type="line"/>
			<point x="464.1640625" y="738" type="line"/>
			<point x="467.1640625" y="132.9997558594" type="line"/>
			<point x="694.3168945312" y="99.9997558594" type="line"/>
			<point x="694.3168945312" y="0" type="line"/>
		</contour>
		<contour>
			<point x="732.0053100586" y="751.2579345703" type="line"/>
			<point x="917.2319946289" y="788.4399414062" type="line"/>
			<point x="1182.8944702148" y="283" type="line" smooth="yes"/>
			<point x="1248.2359619141" y="173.2608642578"/>
			<point x="1372.0269775391" y="97.2811279297"/>
			<point x="1448.5374145508" y="103.9997558594" type="qcurve"/>
			<point x="1448.5374145508" y="0" type="line"/>
			<point x="1171.1381225586" y="0" type="line"/>
			<point x="1107.3129272461" y="68" type="line"/>
		</contour>
	</outline>
	<anchor name="bottom" x="803" y="0"/>
	<anchor name="top" x="630" y="1500"/>
</glyph>
<glyph name="T" format="2">
	<unicode hex="0054"/>
	<advance width="1371"/>
	<outline>
		<contour>
			<point x="36.1950683594" y="1051.5253295898" type="line"/>
			<point x="36.1950683594" y="1500" type="line"/>
			<point x="1334.3756103516" y="1500" type="line"/>
			<point x="1334.3756103516" y="1051.5253295898" type="line"/>
			<point x="1224.3728027344" y="1051.5253295898" type="line"/>
			<point x="1189.3745117188" y="1382.516784668" type="line"/>
			<point x="802.1455078125" y="1382.516784668" type="line"/>
			<point x="776.1455078125" y="1370.516784668" type="line"/>
			<point x="773.3780517578" y="754" type="line"/>
			<point x="776.1455078125" y="135.9997558594" type="line"/>
			<point x="1009.442565918" y="101.9997558594" type="line"/>
			<point x="1009.442565918" y="0" type="line"/>
			<point x="356.1750488281" y="0" type="line"/>
			<point x="356.1750488281" y="101.9997558594" type="line"/>
			<point x="595.760559082" y="135.9997558594" type="line"/>
			<point x="598.5280151367" y="754" type="line"/>
			<point x="595.760559082" y="1368.516784668" type="line"/>
			<point x="570.760559082" y="1382.516784668" type="line"/>
			<point x="178.1961669922" y="1382.516784668" type="line"/>
			<point x="147.1978759766" y="1051.5253295898" type="line"/>
		</contour>
	</outline>
	<anchor name="bottom" x="644" y="0"/>
	<anchor name="center" x="644" y="750"/>
	<anchor name="top" x="644" y="1500"/>
	<anchor name="cy_descender" x="951" y="100"/>
</glyph>
<glyph name="U" format="2">
	<unicode hex="0055"/>
	<advance width="1619"/>
	<outline>
		<contour>
			<point x="82.1549072266" y="1402.1602783203" type="line"/>
			<point x="82.1549072266" y="1500" type="line"/>
			<point x="647.6490478516" y="1500" type="line"/>
			<point x="647.6490478516" y="1402.1602783203" type="line"/>
			<point x="446.7942504883" y="1368.1602783203" type="line"/>
			<point x="446.7942504883" y="799" type="line"/>
			<point x="449.4803466797" y="447.9673461914" type="line" smooth="yes"/>
			<point x="451.0152587891" y="265.9673461914"/>
			<point x="658.5712280273" y="104.0315551758"/>
			<point x="862.4674682617" y="104.0315551758" type="qcurve" smooth="yes"/>
			<point x="1044.047668457" y="104.0315551758"/>
			<point x="1254.3526611328" y="284.9996337891"/>
			<point x="1250.1624755859" y="457.9996337891" type="qcurve" smooth="yes"/>
			<point x="1251.5495605469" y="794" type="line"/>
			<point x="1244.0750732422" y="1368.1602783203" type="line"/>
			<point x="1056.6337890625" y="1403.1602783203" type="line"/>
			<point x="1056.6337890625" y="1500" type="line"/>
			<point x="1522.6539916992" y="1500" type="line"/>
			<point x="1522.6539916992" y="1403.1602783203" type="line"/>
			<point x="1365.6549682617" y="1368.1602783203" type="line"/>
			<point x="1363.8841552734" y="794" type="line"/>
			<point x="1368.9359130859" y="418" type="line" smooth="yes"/>
			<point x="1372.2918701172" y="204"/>
			<point x="1054.735168457" y="-22"/>
			<point x="827.9430541992" y="-22" type="qcurve" smooth="yes"/>
			<point x="581.5754394531" y="-22"/>
			<point x="267.3279418945" y="161"/>
			<point x="268.7116699219" y="382" type="qcurve" smooth="yes"/>
			<point x="270.7116699219" y="799" type="line"/>
			<point x="268.7116699219" y="1368.1602783203" type="line"/>
		</contour>
	</outline>
	<anchor name="bottom" x="832" y="0"/>
	<anchor name="ogonek" x="1042" y="0"/>
	<anchor name="top" x="832" y="1500"/>
	<anchor name="topright" x="1590" y="1500"/>
</glyph>
<glyph name="V" format="2">
	<unicode hex="0056"/>
	<advance width="1440"/>
	<outline>
		<contour>
			<point x="-71.2309570312" y="1403.1602783203" type="line"/>
			<point x="-71.2309570312" y="1500" type="line"/>
			<point x="558.6943359375" y="1500" type="line"/>
			<point x="558.6943359375" y="1403.1602783203" type="line"/>
			<point x="337.4643554688" y="1375.1602783203" type="line"/>
			<point x="536.2622070312" y="797.3407592773" type="line"/>
			<point x="715.2767944336" y="276.8789672852" type="line"/>
			<point x="752.0551147461" y="145.6359863281" type="line"/>
			<point x="764.0551147461" y="145.6359863281" type="line"/>
			<point x="801.5237426758" y="277.2626953125" type="line"/>
			<point x="975.6787109375" y="793.1106567383" type="line"/>
			<point x="1176.5643920898" y="1366.0904541016" type="line"/>
			<point x="950.5941162109" y="1400.0904541016" type="line"/>
			<point x="950.5941162109" y="1496.9301757812" type="line"/>
			<point x="1502.2666015625" y="1500" type="line"/>
			<point x="1502.2666015625" y="1403.1602783203" type="line"/>
			<point x="1314.5943603516" y="1373.1602783203" type="line"/>
			<point x="1087.1449584961" y="752.6381835938" type="line"/>
			<point x="802.5097045898" y="-7" type="line"/>
			<point x="646.4575805664" y="-7" type="line"/>
			<point x="370.1578979492" y="759.2045288086" type="line"/>
			<point x="137.9990234375" y="1373.1602783203" type="line"/>
		</contour>
	</outline>
	<anchor name="bottom" x="723" y="0"/>
	<anchor name="top" x="733" y="1500"/>
</glyph>
<glyph name="W" format="2">
	<unicode hex="0057"/>
	<advance width="1941"/>
	<outline>
		<contour>
			<point x="545.6954956055" y="-5" type="line"/>
			<point x="319.1164550781" y="743.6460571289" type="line"/>
			<point x="117.9990234375" y="1389.1602783203" type="line"/>
			<point x="-79.2309570312" y="1403.1602783203" type="line"/>
			<point x="-79.2309570312" y="1500" type="line"/>
			<point x="488.698059082" y="1500" type="line"/>
			<point x="488.698059082" y="1403.1602783203" type="line"/>
			<point x="307.5835571289" y="1393.1602783203" type="line"/>
			<point x="481.7705688477" y="795.8145751953" type="line"/>
			<point x="608.2582397461" y="341.6597900391" type="line"/>
			<point x="644.2749633789" y="184.3814697266" type="line"/>
			<point x="656.2749633789" y="184.3814697266" type="line"/>
			<point x="700.8176269531" y="342.3919067383" type="line"/>
			<point x="788.1065063477" y="626.2821655273" type="line"/>
			<point x="928.7644042969" y="1058.923828125" type="line"/>
			<point x="840.98828125" y="1386.6402587891" type="line"/>
			<point x="642.7583007812" y="1401.6402587891" type="line"/>
			<point x="642.7583007812" y="1500" type="line"/>
			<point x="1220.0425415039" y="1500" type="line"/>
			<point x="1220.0425415039" y="1401.6402587891" type="line"/>
			<point x="1031.8125610352" y="1390.6402587891" type="line"/>
			<point x="1191.5159301758" y="790.8768920898" type="line"/>
			<point x="1307.682800293" y="340.6920776367" type="line"/>
			<point x="1338.7708129883" y="202.2202148438" type="line"/>
			<point x="1350.7708129883" y="202.2202148438" type="line"/>
			<point x="1384.0462036133" y="341.0404663086" type="line"/>
			<point x="1531.6265258789" y="849.5635986328" type="line"/>
			<point x="1688.6173706055" y="1386.1602783203" type="line"/>
			<point x="1482.2048339844" y="1402.1602783203" type="line"/>
			<point x="1482.2048339844" y="1500" type="line"/>
			<point x="2013.8187866211" y="1500" type="line"/>
			<point x="2013.8187866211" y="1402.1602783203" type="line"/>
			<point x="1823.704284668" y="1390.1602783203" type="line"/>
			<point x="1638.9339599609" y="791.7061767578" type="line"/>
			<point x="1382.3282470703" y="-5" type="line"/>
			<point x="1232.0958862305" y="-5" type="line"/>
			<point x="1025.4716186523" y="718.6763916016" type="line"/>
			<point x="987.2287597656" y="896.5319824219" type="line"/>
			<point x="975.2287597656" y="896.5319824219" type="line"/>
			<point x="893.8655395508" y="588.0991210938" type="line"/>
			<point x="701.0333251953" y="-5" type="line"/>
		</contour>
	</outline>
	<anchor name="bottom" x="1051" y="0"/>
	<anchor name="top" x="1051" y="1500"/>
</glyph>
<glyph name="X" format="2">
	<unicode hex="0058"/>
	<advance width="1263"/>
	<outline>
		<contour>
			<point x="-70.9891357422" y="0" type="line"/>
			<point x="-70.9891357422" y="100.9997558594" type="line"/>
			<point x="120.2408447266" y="136.9997558594" type="line"/>
			<point x="575" y="786" type="line"/>
			<point x="202.6727294922" y="1365.1602783203" type="line"/>
			<point x="-24.1149902344" y="1402.1602783203" type="line"/>
			<point x="-24.1149902344" y="1500" type="line"/>
			<point x="615.299621582" y="1500" type="line"/>
			<point x="615.299621582" y="1402.1602783203" type="line"/>
			<point x="403.3485107422" y="1366.1602783203" type="line"/>
			<point x="601" y="1043" type="line"/>
			<point x="673" y="929" type="line"/>
			<point x="683" y="929" type="line"/>
			<point x="751" y="1043" type="line"/>
			<point x="994.9248657227" y="1365.1602783203" type="line"/>
			<point x="806.3968505859" y="1402.1602783203" type="line"/>
			<point x="806.3968505859" y="1500" type="line"/>
			<point x="1326.6930541992" y="1500" type="line"/>
			<point x="1326.6930541992" y="1402.1602783203" type="line"/>
			<point x="1127.0208129883" y="1365.1602783203" type="line"/>
			<point x="753" y="818" type="line"/>
			<point x="1173.2691040039" y="134.9997558594" type="line"/>
			<point x="1405.4990844727" y="100.9997558594" type="line"/>
			<point x="1405.4990844727" y="0" type="line"/>
			<point x="769.8747558594" y="0" type="line"/>
			<point x="769.8747558594" y="100.9997558594" type="line"/>
			<point x="967.8258666992" y="134.9997558594" type="line"/>
			<point x="727" y="562" type="line"/>
			<point x="655" y="676" type="line"/>
			<point x="645" y="676" type="line"/>
			<point x="577" y="562" type="line"/>
			<point x="259.3367919922" y="136.9997558594" type="line"/>
			<point x="446.8648071289" y="100.9997558594" type="line"/>
			<point x="446.8648071289" y="0" type="line"/>
		</contour>
	</outline>
	<anchor name="bottom" x="661" y="0"/>
	<anchor name="top" x="673" y="1500"/>
	<anchor name="cy_descender" x="1386" y="100"/>
	<anchor name="center" x="663" y="811"/>
</glyph>
<glyph name="Y" format="2">
	<unicode hex="0059"/>
	<advance width="1375"/>
	<outline>
		<contour>
			<point x="368.0294799805" y="0" type="line"/>
			<point x="368.0294799805" y="99.9997558594" type="line"/>
			<point x="617.7592163086" y="134.9997558594" type="line"/>
			<point x="618.5266723633" y="611.3023681641" type="line"/>
			<point x="399.4865722656" y="946.6190795898" type="line"/>
			<point x="143.9990234375" y="1360.1602783203" type="line"/>
			<point x="-83.0771484375" y="1402.1602783203" type="line"/>
			<point x="-83.0771484375" y="1500" type="line"/>
			<point x="570.6247558594" y="1500" type="line"/>
			<point x="570.6247558594" y="1402.1602783203" type="line"/>
			<point x="351.981262207" y="1369.1602783203" type="line"/>
			<point x="545.2476806641" y="1039.2406005859" type="line"/>
			<point x="659" y="783" type="line"/>
			<point x="669" y="783" type="line"/>
			<point x="910.1842651367" y="1047.5547485352" type="line"/>
			<point x="1087.9442138672" y="1362.1602783203" type="line"/>
			<point x="892.9739379883" y="1402.1602783203" type="line"/>
			<point x="892.9739379883" y="1500" type="line"/>
			<point x="1422.9107666016" y="1500" type="line"/>
			<point x="1422.9107666016" y="1402.1602783203" type="line"/>
			<point x="1219.6807861328" y="1361.1602783203" type="line"/>
			<point x="990.8319091797" y="979.001953125" type="line"/>
			<point x="797.1865234375" y="659.4771728516" type="line"/>
			<point x="797.7604370117" y="134.9997558594" type="line"/>
			<point x="1047.2017211914" y="99.9997558594" type="line"/>
			<point x="1047.2017211914" y="0" type="line"/>
		</contour>
	</outline>
	<anchor name="bottom" x="636" y="0"/>
	<anchor name="top" x="640" y="1500"/>
	<anchor name="tonos" x="-100" y="1500"/>
	<anchor name="center" x="636" y="582"/>
</glyph>
<glyph name="Z" format="2">
	<unicode hex="005A"/>
	<advance width="1212"/>
	<outline>
		<contour>
			<point x="36.6376342773" y="0" type="line"/>
			<point x="5.1861572266" y="89.5479736328" type="line"/>
			<point x="951.930480957" y="1370.516784668" type="line"/>
			<point x="942.930480957" y="1378.516784668" type="line"/>
			<point x="208.8154296875" y="1378.516784668" type="line"/>
			<point x="156.6843261719" y="1103.9174804688" type="line"/>
			<point x="45.2984619141" y="1103.9174804688" type="line"/>
			<point x="45.2984619141" y="1500" type="line"/>
			<point x="1155.2897338867" y="1500" type="line"/>
			<point x="1155.2897338867" y="1384.0972290039" type="line"/>
			<point x="221.6901245117" y="130.5477905273" type="line"/>
			<point x="231.6901245117" y="119.5477905273" type="line"/>
			<point x="993.1116943359" y="119.5477905273" type="line"/>
			<point x="1092.0121459961" y="442.9020996094" type="line"/>
			<point x="1196.8949584961" y="442.9020996094" type="line"/>
			<point x="1132.5017700195" y="0" type="line"/>
		</contour>
	</outline>
	<anchor name="bottom" x="583" y="0"/>
	<anchor name="top" x="583" y="1500"/>
	<anchor name="_liga" x="0" y="0"/>
</glyph>
<glyph name="a" format="2">
	<unicode hex="0061"/>
	<advance width="999"/>
	<outline>
		<contour>
			<point x="39.630859375" y="259.7591552734" type="qcurve" smooth="yes"/>
			<point x="39.630859375" y="406.8310546875"/>
			<point x="347.6471557617" y="624.1596679688"/>
			<point x="749.2638549805" y="632.3887939453" type="qcurve"/>
			<point x="749.2638549805" y="542.6408691406" type="line"/>
			<point x="440.6242675781" y="537.4118041992"/>
			<point x="214.9605712891" y="386.3153076172"/>
			<point x="214.9605712891" y="276.9708251953" type="qcurve" smooth="yes"/>
			<point x="214.9605712891" y="184.9307250977"/>
			<point x="329.3876342773" y="86.1982421875"/>
			<point x="429.2576293945" y="86.1982421875" type="qcurve" smooth="yes"/>
			<point x="527.7595214844" y="86.1982421875"/>
			<point x="661.484375" y="171.6376953125"/>
			<point x="678.2651977539" y="219.7915039062" type="qcurve"/>
			<point x="678.9318237305" y="748.1172485352" type="line" smooth="yes"/>
			<point x="679.2651367188" y="846.3664550781"/>
			<point x="554.3433837891" y="933.1794433594"/>
			<point x="467.647644043" y="933.1794433594" type="qcurve" smooth="yes"/>
			<point x="382.7750244141" y="933.1794433594"/>
			<point x="284.1262207031" y="887.5866088867"/>
			<point x="265.5747070312" y="876.6996459961" type="qcurve"/>
			<point x="284.2018432617" y="866.7037353516"/>
			<point x="337.9837646484" y="820.8436889648"/>
			<point x="339.7825927734" y="776.510559082" type="qcurve" smooth="yes"/>
			<point x="344.0311279297" y="725.8444824219"/>
			<point x="278.5692749023" y="673.1787109375"/>
			<point x="235.5700073242" y="673.1787109375" type="qcurve" smooth="yes"/>
			<point x="186.9041748047" y="673.1787109375"/>
			<point x="125.1190185547" y="742.5111694336"/>
			<point x="125.1190185547" y="811.5101928711" type="qcurve" smooth="yes"/>
			<point x="125.1190185547" y="901.5100708008"/>
			<point x="318.3684082031" y="1025.5095214844"/>
			<point x="478.8787231445" y="1025.5095214844" type="qcurve" smooth="yes"/>
			<point x="656.0054931641" y="1025.5095214844"/>
			<point x="842.2619628906" y="890.8937988281"/>
			<point x="842.2619628906" y="744.4574584961" type="qcurve" smooth="yes"/>
			<point x="844.2619628906" y="107.9965820312" type="line"/>
			<point x="985.2109375" y="80.9965820312" type="line"/>
			<point x="985.2109375" y="0" type="line"/>
			<point x="736.2637939453" y="0" type="line"/>
			<point x="701.264831543" y="43.3324584961" type="line"/>
			<point x="685.2304077148" y="121.1692504883" type="line"/>
			<point x="655.8178100586" y="70.9520263672"/>
			<point x="470.1378173828" y="-13"/>
			<point x="348.6732177734" y="-13" type="qcurve" smooth="yes"/>
			<point x="216.3262939453" y="-13"/>
			<point x="39.630859375" y="118.9389038086"/>
		</contour>
	</outline>
	<anchor name="bottom" x="548" y="0"/>
	<anchor name="ogonek" x="878" y="0"/>
	<anchor name="top" x="514" y="1000"/>
</glyph>
<glyph name="c" format="2">
	<unicode hex="0063"/>
	<advance width="919"/>
	<outline>
		<contour>
			<point x="63.9975585938" y="502.913269043" type="qcurve" smooth="yes"/>
			<point x="63.9975585938" y="742.5405883789"/>
			<point x="320.9858398438" y="1016.7385864258"/>
			<point x="520.8610839844" y="1016.7385864258" type="qcurve" smooth="yes"/>
			<point x="609.4632568359" y="1016.7385864258"/>
			<point x="713.8307495117" y="977.6272583008"/>
			<point x="750.1159057617" y="937.5530395508" type="qcurve"/>
			<point x="771.0289916992" y="1002.2688598633" type="line"/>
			<point x="862.493347168" y="1002.2688598633" type="line"/>
			<point x="877.493347168" y="658.0838012695" type="line"/>
			<point x="776.1432495117" y="656.0838012695" type="line"/>
			<point x="743.7116088867" y="754.1443481445" type="line" smooth="yes"/>
			<point x="719.0665893555" y="832.8665161133"/>
			<point x="612.450012207" y="914.5178833008"/>
			<point x="530.0829467773" y="914.5178833008" type="qcurve" smooth="yes"/>
			<point x="403.7908935547" y="914.5178833008"/>
			<point x="237.9940795898" y="686.9721069336"/>
			<point x="237.9940795898" y="505.4625854492" type="qcurve" smooth="yes"/>
			<point x="237.9940795898" y="331.2162475586"/>
			<point x="408.5400390625" y="88.36328125"/>
			<point x="563.5966186523" y="88.36328125" type="qcurve" smooth="yes"/>
			<point x="661.9945678711" y="88.36328125"/>
			<point x="800.8151245117" y="149.1655273438"/>
			<point x="849.8161010742" y="218.6821289062" type="qcurve"/>
			<point x="911.8483276367" y="156" type="line"/>
			<point x="864.0397338867" y="81"/>
			<point x="680.2382202148" y="-17"/>
			<point x="525.1467895508" y="-17" type="qcurve" smooth="yes"/>
			<point x="325.6592407227" y="-17"/>
			<point x="63.9975585938" y="253.1113891602"/>
		</contour>
	</outline>
	<anchor name="bottom" x="563" y="0"/>
	<anchor name="top" x="534" y="1000"/>
</glyph>
<glyph name="d" format="2">
	<unicode hex="0064"/>
	<advance width="1200"/>
	<outline>
		<contour>
			<point x="62.4418945312" y="496.0330810547" type="qcurve" smooth="yes"/>
			<point x="62.4418945312" y="735.1403808594"/>
			<point x="353.4201049805" y="1014.4975585938"/>
			<point x="558.7127075195" y="1014.4975585938" type="qcurve" smooth="yes"/>
			<point x="656.356628418" y="1014.4975585938"/>
			<point x="805.7699584961" y="970.521484375"/>
			<point x="843.8651123047" y="943.0394287109" type="qcurve"/>
			<point x="844.5866088867" y="1413" type="line"/>
			<point x="659.9887084961" y="1438" type="line"/>
			<point x="659.9887084961" y="1519.9965820312" type="line"/>
			<point x="979.3216552734" y="1533.9965820312" type="line"/>
			<point x="993.3213500977" y="1528.9965820312" type="line"/>
			<point x="1010.987487793" y="1507.9965820312" type="line"/>
			<point x="1007.3209228516" y="531.4838256836" type="line"/>
			<point x="1015.3207397461" y="107.9965820312" type="line"/>
			<point x="1159.512878418" y="80.9965820312" type="line"/>
			<point x="1159.512878418" y="0" type="line"/>
			<point x="899.1154785156" y="0" type="line"/>
			<point x="863.9630126953" y="23" type="line"/>
			<point x="847.135559082" y="77.7406005859" type="line"/>
			<point x="806.5348510742" y="44.0747070312"/>
			<point x="611.2392578125" y="-10"/>
			<point x="498.3087768555" y="-10" type="qcurve" smooth="yes"/>
			<point x="324.4170532227" y="-10"/>
			<point x="62.4418945312" y="217.8076171875"/>
		</contour>
		<contour>
			<point x="238.438293457" y="494.4631958008" type="qcurve" smooth="yes"/>
			<point x="238.438293457" y="281.4993286133"/>
			<point x="416.9727783203" y="94.4399414062"/>
			<point x="541.1470947266" y="94.4399414062" type="qcurve" smooth="yes"/>
			<point x="625.9414672852" y="94.4399414062"/>
			<point x="793.2015380859" y="127.5759277344"/>
			<point x="846.657409668" y="160.6818847656" type="qcurve"/>
			<point x="854.1162719727" y="544.9898071289" type="line"/>
			<point x="850.1162719727" y="827.3411254883" type="line"/>
			<point x="820.813293457" y="852.6574707031"/>
			<point x="679.6976928711" y="908.3208007812"/>
			<point x="587.4605712891" y="908.3208007812" type="qcurve" smooth="yes"/>
			<point x="450.4039916992" y="908.3208007812"/>
			<point x="238.438293457" y="695.2903442383"/>
		</contour>
	</outline>
	<anchor name="bottom" x="604" y="0"/>
	<anchor name="center" x="876" y="1202"/>
	<anchor name="top" x="604" y="1534"/>
	<anchor name="topright" x="961" y="1000"/>
	<anchor name="liga" x="1207" y="0"/>
</glyph>
<glyph name="e" format="2">
	<unicode hex="0065"/>
	<advance width="997"/>
	<outline>
		<contour>
			<point x="63.8864746094" y="506.817565918" type="qcurve" smooth="yes"/>
			<point x="63.8864746094" y="746.5092773438"/>
			<point x="319.6246948242" y="1025.4855957031"/>
			<point x="533.7988891602" y="1025.4855957031" type="qcurve" smooth="yes"/>
			<point x="727.2752075195" y="1025.4855957031"/>
			<point x="963.4680786133" y="814.1112060547"/>
			<point x="975.3939208984" y="599.0656738281" type="qcurve"/>
			<point x="975.3939208984" y="517.3615722656" type="line"/>
			<point x="166" y="528" type="line"/>
			<point x="166" y="624" type="line"/>
			<point x="800.7305908203" y="615.2854003906" type="line"/>
			<point x="789.1104736328" y="756.1285400391"/>
			<point x="656.4791870117" y="912.9353027344"/>
			<point x="530.2452392578" y="912.9353027344" type="qcurve" smooth="yes"/>
			<point x="399.5409545898" y="912.9353027344"/>
			<point x="234.8829345703" y="719.1725463867"/>
			<point x="234.8829345703" y="526.4838256836" type="qcurve" smooth="yes"/>
			<point x="234.8829345703" y="321.1287231445"/>
			<point x="427.5728149414" y="92.4951171875"/>
			<point x="573.3948364258" y="92.4951171875" type="qcurve" smooth="yes"/>
			<point x="704.501953125" y="92.4951171875"/>
			<point x="833.7149658203" y="170.71484375"/>
			<point x="881.0589599609" y="224.6928710938" type="qcurve"/>
			<point x="955.7078857422" y="164.6591796875" type="line"/>
			<point x="917.8698120117" y="107.3735351562"/>
			<point x="739.9564208984" y="-17"/>
			<point x="560.638671875" y="-17" type="qcurve" smooth="yes"/>
			<point x="327.8645019531" y="-17"/>
			<point x="63.8864746094" y="246.5473632812"/>
		</contour>
	</outline>
	<anchor name="bottom" x="578" y="0"/>
	<anchor name="ogonek" x="744" y="0"/>
	<anchor name="top" x="539" y="1000"/>
</glyph>
<glyph name="g" format="2">
	<unicode hex="0067"/>
	<advance width="1009"/>
	<outline>
		<contour>
			<point x="27.4173583984" y="-282.5690917969" type="qcurve" smooth="yes"/>
			<point x="27.4173583984" y="-174.5606689453"/>
			<point x="126" y="-51"/>
			<point x="233" y="2" type="qcurve"/>
			<point x="340" y="-21" type="line"/>
			<point x="240" y="-84"/>
			<point x="180.0816040039" y="-187.1393432617"/>
			<point x="180.0816040039" y="-240.4431762695" type="qcurve" smooth="yes"/>
			<point x="180.0816040039" y="-314.4107055664"/>
			<point x="325.8599243164" y="-421.373046875"/>
			<point x="522.8482055664" y="-421.373046875" type="qcurve" smooth="yes"/>
			<point x="701.0034790039" y="-421.373046875"/>
			<point x="867.7485961914" y="-310.4666748047"/>
			<point x="867.7485961914" y="-240.5384521484" type="qcurve" smooth="yes"/>
			<point x="867.7485961914" y="-170.3452758789"/>
			<point x="735.2456054688" y="-128.2098388672"/>
			<point x="494.2076416016" y="-111.0763549805" type="qcurve" smooth="yes"/>
			<point x="302.4875488281" y="-98.6997680664"/>
			<point x="92.4251098633" y="1.3334960938"/>
			<point x="92.4251098633" y="100.5055541992" type="qcurve" smooth="yes"/>
			<point x="92.4251098633" y="189.0878295898"/>
			<point x="208.3967285156" y="289.6631469727"/>
			<point x="320.7954101562" y="330.6665649414" type="qcurve"/>
			<point x="365.4692993164" y="274.6021728516" type="line"/>
			<point x="275.258605957" y="237.1815185547"/>
			<point x="227.7567138672" y="187.7534790039"/>
			<point x="227.7567138672" y="139.2539672852" type="qcurve" smooth="yes"/>
			<point x="227.7567138672" y="105.9569702148"/>
			<point x="332.3319702148" y="65.2344970703"/>
			<point x="554.1613769531" y="57.2540283203" type="qcurve" smooth="yes"/>
			<point x="759.2679443359" y="50.5340576172"/>
			<point x="1013.4136352539" y="-57.7233886719"/>
			<point x="1013.4136352539" y="-191.9958496094" type="qcurve" smooth="yes"/>
			<point x="1013.4136352539" y="-320.4296875"/>
			<point x="789.5653686523" y="-510"/>
			<point x="527.6322021484" y="-510" type="qcurve" smooth="yes"/>
			<point x="285.2655029297" y="-510"/>
			<point x="27.4173583984" y="-375.8306884766"/>
		</contour>
		<contour>
			<point x="99.794921875" y="623.4166259766" type="qcurve" smooth="yes"/>
			<point x="99.794921875" y="793.0834350586"/>
			<point x="329.7677001953" y="1026.4975585938"/>
			<point x="513.5609741211" y="1026.4975585938" type="qcurve" smooth="yes"/>
			<point x="695.354309082" y="1026.4975585938"/>
			<point x="932.2368164062" y="812.0834350586"/>
			<point x="932.2368164062" y="635.0831298828" type="qcurve" smooth="yes"/>
			<point x="933.2368164062" y="484.5220336914"/>
			<point x="704.3881225586" y="229.9145507812"/>
			<point x="518.9297485352" y="229.9145507812" type="qcurve" smooth="yes"/>
			<point x="334.8659667969" y="229.9145507812"/>
			<point x="99.794921875" y="461.4158935547"/>
		</contour>
		<contour>
			<point x="273.7914428711" y="628.0356445312" type="qcurve" smooth="yes"/>
			<point x="273.7914428711" y="506.2489013672"/>
			<point x="391.2960205078" y="329.728515625"/>
			<point x="517.2357788086" y="329.728515625" type="qcurve" smooth="yes"/>
			<point x="638.7639160156" y="329.728515625"/>
			<point x="755.5736694336" y="512.2489013672"/>
			<point x="755.5736694336" y="629.0356445312" type="qcurve" smooth="yes"/>
			<point x="755.5736694336" y="750.8223876953"/>
			<point x="641.5554199219" y="922.7495117188"/>
			<point x="514.6156616211" y="922.7495117188" type="qcurve" smooth="yes"/>
			<point x="393.2639770508" y="922.7495117188"/>
			<point x="273.7914428711" y="745.8223876953"/>
		</contour>
		<contour>
			<point x="540" y="925" type="line"/>
			<point x="540" y="1000" type="line"/>
			<point x="1061.3920898438" y="998.4975585938" type="line"/>
			<point x="1061.3920898438" y="889.6176757812" type="line"/>
		</contour>
	</outline>
	<anchor name="bottom" x="524" y="-416"/>
	<anchor name="top" x="484" y="1000"/>
</glyph>
<glyph name="h" format="2">
	<unicode hex="0068"/>
	<advance width="1215"/>
	<outline>
		<contour>
			<point x="71.4953613281" y="0" type="line"/>
			<point x="71.4953613281" y="80.9965820312" type="line"/>
			<point x="219.3630371094" y="107.9965820312" type="line"/>
			<point x="221.3630371094" y="549.4700927734" type="line"/>
			<point x="224.3630371094" y="1413" type="line"/>
			<point x="70.3630371094" y="1438" type="line"/>
			<point x="70.3630371094" y="1519.9965820312" type="line"/>
			<point x="338.0264282227" y="1533.9965820312" type="line"/>
			<point x="366.0264282227" y="1533.9965820312" type="line"/>
			<point x="387.0264282227" y="1507.9965820312" type="line"/>
			<point x="384.0264282227" y="867.3225097656" type="line"/>
			<point x="438.0115966797" y="924.9740600586"/>
			<point x="599.1646118164" y="1023.0035400391"/>
			<point x="713.1885986328" y="1023.0035400391" type="qcurve" smooth="yes"/>
			<point x="864.4548950195" y="1023.0035400391"/>
			<point x="1016.413269043" y="887.3596191406"/>
			<point x="1016.413269043" y="766.0035400391" type="qcurve" smooth="yes"/>
			<point x="1016.413269043" y="724.44140625"/>
			<point x="985.8265380859" y="652.9401855469"/>
			<point x="985.8265380859" y="652.9401855469" type="qcurve"/>
			<point x="1015.413269043" y="107.9965820312" type="line"/>
			<point x="1154.4161987305" y="80.9965820312" type="line"/>
			<point x="1154.4161987305" y="0" type="line"/>
			<point x="732.8547973633" y="0" type="line"/>
			<point x="732.8547973633" y="80.9965820312" type="line"/>
			<point x="850.7498168945" y="107.9965820312" type="line"/>
			<point x="850.7498168945" y="587.5462646484" type="line"/>
			<point x="850.7498168945" y="707.9270019531" type="line" smooth="yes"/>
			<point x="850.7498168945" y="804.2088012695"/>
			<point x="747.6810302734" y="901.4830322266"/>
			<point x="650.3386230469" y="901.4830322266" type="qcurve" smooth="yes"/>
			<point x="560.1600341797" y="901.4830322266"/>
			<point x="428.946105957" y="806.0620117188"/>
			<point x="387.0264282227" y="724.4974975586" type="qcurve"/>
			<point x="383.0264282227" y="587.5462646484" type="line"/>
			<point x="388.0264282227" y="107.9965820312" type="line"/>
			<point x="538.1372680664" y="80.9965820312" type="line"/>
			<point x="538.1372680664" y="0" type="line"/>
		</contour>
	</outline>
	<anchor name="bottom" x="629" y="0"/>
	<anchor name="center" x="347" y="1202"/>
	<anchor name="top" x="304" y="1534"/>
</glyph>
<glyph name="k" format="2">
	<unicode hex="006B"/>
	<advance width="1051"/>
	<outline>
		<contour>
			<point x="75.658203125" y="0" type="line"/>
			<point x="75.658203125" y="80.9965820312" type="line"/>
			<point x="223.5258789062" y="107.9965820312" type="line"/>
			<point x="226.1925048828" y="552" type="line"/>
			<point x="228.5258789062" y="1413" type="line"/>
			<point x="43.1171875" y="1438" type="line"/>
			<point x="43.1171875" y="1516.2124023438" type="line"/>
			<point x="342.8558959961" y="1533.9965820312" type="line"/>
			<point x="370.8558959961" y="1533.9965820312" type="line"/>
			<point x="391.8558959961" y="1507.9965820312" type="line"/>
			<point x="387.1892700195" y="587" type="line"/>
			<point x="392.8558959961" y="107.9965820312" type="line"/>
			<point x="539.9667358398" y="80.9965820312" type="line"/>
			<point x="539.9667358398" y="0" type="line"/>
		</contour>
		<contour>
			<point x="303" y="376" type="line"/>
			<point x="303" y="490" type="line"/>
			<point x="736.7452392578" y="899.5009765625" type="line"/>
			<point x="633.7452392578" y="921.5009765625" type="line"/>
			<point x="633.7452392578" y="1007.4975585938" type="line"/>
			<point x="968.8560791016" y="1007.4975585938" type="line"/>
			<point x="968.8560791016" y="921.5009765625" type="line"/>
			<point x="850.8560791016" y="898.5009765625" type="line"/>
		</contour>
		<contour>
			<point x="451.0932617188" y="564.8134765625" type="line"/>
			<point x="569.7130737305" y="652.7362060547" type="line"/>
			<point x="949.7709960938" y="114.9965820312" type="line"/>
			<point x="1086.6372070312" y="80.9965820312" type="line"/>
			<point x="1086.6372070312" y="0" type="line"/>
			<point x="763.1080322266" y="0" type="line"/>
			<point x="743.1080322266" y="48.9965820312" type="line"/>
			<point x="785.1080322266" y="85.9965820312" type="line"/>
		</contour>
	</outline>
	<anchor name="bottom" x="608" y="0"/>
	<anchor name="top" x="578" y="1534"/>
</glyph>
<glyph name="l" format="2">
	<unicode hex="006C"/>
	<advance width="605"/>
	<outline>
		<contour>
			<point x="61.5061035156" y="0" type="line"/>
			<point x="61.5061035156" y="79.9965820312" type="line"/>
			<point x="230.1579589844" y="107.9965820312" type="line"/>
			<point x="232.8245849609" y="532" type="line"/>
			<point x="235.1579589844" y="1405.3337402344" type="line"/>
			<point x="44.9650878906" y="1430.3337402344" type="line"/>
			<point x="44.9650878906" y="1513.3303222656" type="line"/>
			<point x="335.4888305664" y="1533.9965820312" type="line"/>
			<point x="370.8217773438" y="1533.9965820312" type="line"/>
			<point x="399.4879760742" y="1508.9965820312" type="line"/>
			<point x="393.8213500977" y="533" type="line"/>
			<point x="399.4879760742" y="107.9965820312" type="line"/>
			<point x="559.3829956055" y="79.9965820312" type="line"/>
			<point x="559.3829956055" y="0" type="line"/>
		</contour>
	</outline>
	<anchor name="bottom" x="316" y="0"/>
	<anchor name="center" x="316" y="750"/>
	<anchor name="top" x="316" y="1534"/>
	<anchor name="topright" x="367" y="1000"/>
	<anchor name="centerright" x="746" y="680"/>
	<anchor name="yu_dash" x="321" y="500"/>
	<anchor name="liga" x="632" y="0"/>
</glyph>
<glyph name="m" format="2">
	<unicode hex="006D"/>
	<advance width="1851"/>
	<outline>
		<contour>
			<point x="76.2370605469" y="0" type="line"/>
			<point x="76.2370605469" y="80.9965820312" type="line"/>
			<point x="224.2399902344" y="107.9965820312" type="line"/>
			<point x="226.9066162109" y="552" type="line"/>
			<point x="224.2399902344" y="878.7539672852" type="line"/>
			<point x="62.2370605469" y="898.7539672852" type="line"/>
			<point x="62.2370605469" y="993.7505493164" type="line"/>
			<point x="342.5707397461" y="1007.7505493164" type="line"/>
			<point x="369.2371826172" y="987.4174194336" type="line"/>
			<point x="381.5700073242" y="866.083984375" type="line"/>
			<point x="433.1813354492" y="925.4172973633"/>
			<point x="622.1688842773" y="1023.7505493164"/>
			<point x="725.4120483398" y="1023.7505493164" type="qcurve" smooth="yes"/>
			<point x="855.4200439453" y="1023.7505493164"/>
			<point x="991.7112426758" y="939.4174804688"/>
			<point x="1016.0294189453" y="862.4175415039" type="qcurve"/>
			<point x="1066.0336303711" y="927.4172973633"/>
			<point x="1274.8266601562" y="1022.7505493164"/>
			<point x="1379.2138061523" y="1022.7505493164" type="qcurve" smooth="yes"/>
			<point x="1525.4456176758" y="1022.7505493164"/>
			<point x="1665.2349853516" y="901.7505493164"/>
			<point x="1665.2349853516" y="766.7505493164" type="qcurve" smooth="yes"/>
			<point x="1665.2349853516" y="728.1590576172"/>
			<point x="1665.8214111328" y="632.4342041016"/>
			<point x="1665.5684204102" y="587" type="qcurve" smooth="yes"/>
			<point x="1670.2349853516" y="107.9965820312" type="line"/>
			<point x="1810.2379150391" y="80.9965820312" type="line"/>
			<point x="1810.2379150391" y="0" type="line"/>
			<point x="1379.676574707" y="0" type="line"/>
			<point x="1379.676574707" y="80.9965820312" type="line"/>
			<point x="1500.5715942383" y="107.9965820312" type="line"/>
			<point x="1501.2382202148" y="591" type="line"/>
			<point x="1502.6063232422" y="721.5232543945" type="line" smooth="yes"/>
			<point x="1503.1535644531" y="827.5232543945"/>
			<point x="1407.9210205078" y="902.5232543945"/>
			<point x="1318.8522949219" y="902.5232543945" type="qcurve" smooth="yes"/>
			<point x="1233.3309326172" y="902.5232543945"/>
			<point x="1069.1979980469" y="820.692565918"/>
			<point x="1027.7406616211" y="738.041015625" type="qcurve"/>
			<point x="1025.3129272461" y="745.184753418"/>
			<point x="1026.7059936523" y="680.4581298828"/>
			<point x="1026.7059936523" y="587" type="qcurve" smooth="yes"/>
			<point x="1030.3725585938" y="107.9965820312" type="line"/>
			<point x="1165.3754882812" y="80.9965820312" type="line"/>
			<point x="1165.3754882812" y="0" type="line"/>
			<point x="742.8141479492" y="0" type="line"/>
			<point x="742.8141479492" y="80.9965820312" type="line"/>
			<point x="862.7091674805" y="107.9965820312" type="line"/>
			<point x="863.375793457" y="585" type="line"/>
			<point x="863.375793457" y="721.5232543945" type="line" smooth="yes"/>
			<point x="863.375793457" y="813.5232543945"/>
			<point x="774.536315918" y="902.5232543945"/>
			<point x="683.109375" y="902.5232543945" type="qcurve" smooth="yes"/>
			<point x="570.0754394531" y="902.5232543945"/>
			<point x="426.7536621094" y="795.9563598633"/>
			<point x="385.5700683594" y="725.6630859375" type="qcurve"/>
			<point x="388.2367553711" y="545" type="line"/>
			<point x="394.9033813477" y="107.9965820312" type="line"/>
			<point x="536.0142211914" y="80.9965820312" type="line"/>
			<point x="536.0142211914" y="0" type="line"/>
		</contour>
	</outline>
	<anchor name="bottom" x="958" y="0"/>
	<anchor name="top" x="958" y="1000"/>
</glyph>
<glyph name="n" format="2">
	<unicode hex="006E"/>
	<advance width="1230"/>
	<outline>
		<contour>
			<point x="76.2370605469" y="0" type="line"/>
			<point x="76.2370605469" y="80.9965820312" type="line"/>
			<point x="224.2399902344" y="107.9965820312" type="line"/>
			<point x="226.9066162109" y="549.4700927734" type="line"/>
			<point x="224.2399902344" y="872.0877075195" type="line"/>
			<point x="62.2370605469" y="892.0877075195" type="line"/>
			<point x="62.2370605469" y="983.4893188477" type="line"/>
			<point x="341.9040527344" y="1007.7505493164" type="line"/>
			<point x="368.2371826172" y="990.7505493164" type="line"/>
			<point x="380.5700073242" y="848.3431396484" type="line"/>
			<point x="430.9924316406" y="918.3627929688"/>
			<point x="619.9804077148" y="1023.7505493164"/>
			<point x="742.7308349609" y="1023.7505493164" type="qcurve" smooth="yes"/>
			<point x="894.9973144531" y="1023.7505493164"/>
			<point x="1047.6219482422" y="901.7505493164"/>
			<point x="1047.6219482422" y="767.7505493164" type="qcurve" smooth="yes"/>
			<point x="1047.6219482422" y="731.6411132812"/>
			<point x="1042.3687133789" y="568.4222412109"/>
			<point x="1042.2886962891" y="584.4700927734" type="qcurve" smooth="yes"/>
			<point x="1046.9552612305" y="107.9965820312" type="line"/>
			<point x="1186.958190918" y="80.9965820312" type="line"/>
			<point x="1186.958190918" y="0" type="line"/>
			<point x="764.3968505859" y="0" type="line"/>
			<point x="764.3968505859" y="80.9965820312" type="line"/>
			<point x="881.2918701172" y="107.9965820312" type="line"/>
			<point x="881.2918701172" y="587.5462646484" type="line"/>
			<point x="881.2918701172" y="726.6509399414" type="line" smooth="yes"/>
			<point x="881.2918701172" y="827.6069946289"/>
			<point x="773.5814819336" y="905.5410766602"/>
			<point x="686.880859375" y="905.5410766602" type="qcurve" smooth="yes"/>
			<point x="592.9663085938" y="905.5410766602"/>
			<point x="429.5747680664" y="811.1247558594"/>
			<point x="388.2366943359" y="725.4974975586" type="qcurve"/>
			<point x="388.9033813477" y="587.5462646484" type="line"/>
			<point x="395.5700073242" y="107.9965820312" type="line"/>
			<point x="543.680847168" y="80.9965820312" type="line"/>
			<point x="543.680847168" y="0" type="line"/>
		</contour>
	</outline>
	<anchor name="bottom" x="632" y="0"/>
	<anchor name="top" x="632" y="1000"/>
	<anchor name="liga" x="1264" y="0"/>
</glyph>
<glyph name="p" format="2">
	<unicode hex="0070"/>
	<advance width="1164"/>
	<outline>
		<contour>
			<point x="41.775390625" y="-480" type="line"/>
			<point x="41.775390625" y="-399.0034179688" type="line"/>
			<point x="196.8322753906" y="-372.0034179688" type="line"/>
			<point x="200.8322753906" y="424.1710205078" type="line"/>
			<point x="198.8322753906" y="878.5009765625" type="line"/>
			<point x="38.8293457031" y="898.5009765625" type="line"/>
			<point x="38.8293457031" y="989.9025878906" type="line"/>
			<point x="303.8289794922" y="1007.4975585938" type="line"/>
			<point x="326.8289794922" y="989.4975585938" type="line"/>
			<point x="355.8289794922" y="893.4975585938" type="line"/>
			<point x="397.9161987305" y="943.4975585938"/>
			<point x="561.4207763672" y="1023.4975585938"/>
			<point x="665.8024291992" y="1023.4975585938" type="qcurve" smooth="yes"/>
			<point x="854.1412353516" y="1023.4975585938"/>
			<point x="1098.0415649414" y="788.35546875"/>
			<point x="1098.0415649414" y="535.7607421875" type="qcurve" smooth="yes"/>
			<point x="1098.0415649414" y="277.0441894531"/>
			<point x="842.3541259766" y="-12"/>
			<point x="630.1387939453" y="-12" type="qcurve" smooth="yes"/>
			<point x="536.7655029297" y="-12"/>
			<point x="404.4217529297" y="27"/>
			<point x="363.8289794922" y="60" type="qcurve"/>
			<point x="365.8289794922" y="-372.0034179688" type="line"/>
			<point x="566.5887451172" y="-399.0034179688" type="line"/>
			<point x="566.5887451172" y="-480" type="line"/>
		</contour>
		<contour>
			<point x="362.8289794922" y="213.1655273438" type="line"/>
			<point x="395.1239013672" y="149.2534179688"/>
			<point x="527.3582763672" y="86.1655273438"/>
			<point x="604.7049560547" y="86.1655273438" type="qcurve" smooth="yes"/>
			<point x="736.1734619141" y="86.1655273438"/>
			<point x="923.7117919922" y="312.8823852539"/>
			<point x="923.7117919922" y="504.7607421875" type="qcurve" smooth="yes"/>
			<point x="923.7117919922" y="690.8025512695"/>
			<point x="751.8996582031" y="913.4418945312"/>
			<point x="624.7840576172" y="913.4418945312" type="qcurve" smooth="yes"/>
			<point x="531.0057373047" y="913.4418945312"/>
			<point x="395.5281982422" y="834.5078125"/>
			<point x="359.8289794922" y="784.2880859375" type="qcurve"/>
			<point x="359.8289794922" y="419.940612793" type="line"/>
		</contour>
	</outline>
	<anchor name="bottom" x="599" y="0"/>
	<anchor name="top" x="599" y="1000"/>
</glyph>
<glyph name="r" format="2">
	<unicode hex="0072"/>
	<advance width="845"/>
	<outline>
		<contour>
			<point x="75.9921875" y="0" type="line"/>
			<point x="75.9921875" y="80.9965820312" type="line"/>
			<point x="223.9951171875" y="107.9965820312" type="line"/>
			<point x="226.6617431641" y="534.2906494141" type="line"/>
			<point x="223.9951171875" y="868.7545776367" type="line"/>
			<point x="61.9921875" y="898.7539672852" type="line"/>
			<point x="61.9921875" y="993.7505493164" type="line"/>
			<point x="344.9923095703" y="1007.7505493164" type="line"/>
			<point x="374.3849487305" y="990.7505493164" type="line"/>
			<point x="383.3251342773" y="796.7505493164" type="line"/>
			<point x="427.5081787109" y="894.7505493164"/>
			<point x="642.2477416992" y="1020.0035400391"/>
			<point x="761.8648681641" y="1019.7505493164" type="qcurve" smooth="yes"/>
			<point x="831.0665283203" y="1019.7505493164" type="line"/>
			<point x="831.0665283203" y="752.6504516602" type="line"/>
			<point x="723.0684814453" y="752.6504516602" type="line"/>
			<point x="688.4757080078" y="892.7827758789" type="line"/>
			<point x="600.7702026367" y="891.7827758789"/>
			<point x="429.5529785156" y="777.1572875977"/>
			<point x="389.3251342773" y="700.4859008789" type="qcurve"/>
			<point x="386.3251342773" y="569.2906494141" type="line"/>
			<point x="392.3251342773" y="107.9965820312" type="line"/>
			<point x="566.2201538086" y="80.9965820312" type="line"/>
			<point x="566.2201538086" y="0" type="line"/>
		</contour>
	</outline>
	<anchor name="bottom" x="432" y="0"/>
	<anchor name="top" x="486" y="1000"/>
</glyph>
<glyph name="t" format="2">
	<unicode hex="0074"/>
	<advance width="655"/>
	<outline>
		<contour>
			<point x="45.794921875" y="875.7869873047" type="line"/>
			<point x="45.794921875" y="957.8319091797" type="line"/>
			<point x="129.794921875" y="964.8319091797"/>
			<point x="218.4895629883" y="1053.9197998047"/>
			<point x="245.6877441406" y="1236.9197998047" type="qcurve"/>
			<point x="337.6877441406" y="1236.9197998047" type="line"/>
			<point x="345.6877441406" y="1223.9197998047" type="line"/>
			<point x="340.6877441406" y="985.9197998047" type="line"/>
			<point x="607.0591430664" y="985.9197998047" type="line"/>
			<point x="607.0591430664" y="877.7869873047" type="line"/>
			<point x="363.0198364258" y="877.7869873047" type="line"/>
			<point x="361.0198364258" y="539.3504638672" type="line"/>
			<point x="369.0198364258" y="214.1547851562" type="line" smooth="yes"/>
			<point x="369.9978637695" y="161.1547851562"/>
			<point x="402.0198364258" y="113.1547851562"/>
			<point x="464.0591430664" y="115.1547851562" type="qcurve" smooth="yes"/>
			<point x="615.0591430664" y="123.1547851562" type="line"/>
			<point x="615.0591430664" y="40" type="line"/>
			<point x="315.0231933594" y="-8" type="line"/>
			<point x="263.0231933594" y="-5"/>
			<point x="195.0231933594" y="51"/>
			<point x="195.0231933594" y="130" type="qcurve" smooth="yes"/>
			<point x="197.0231933594" y="539.3504638672" type="line"/>
			<point x="201.0231933594" y="868.7869873047" type="line"/>
		</contour>
	</outline>
	<anchor name="bottom" x="322" y="0"/>
	<anchor name="center" x="312" y="622"/>
	<anchor name="top" x="322" y="1179"/>
	<anchor name="topright" x="540" y="1000"/>
</glyph>
<glyph name="v" format="2">
	<unicode hex="0076"/>
	<advance width="957"/>
	<outline>
		<contour>
			<point x="-45.4713745117" y="918.5009765625" type="line"/>
			<point x="-45.4713745117" y="1007.4975585938" type="line"/>
			<point x="421.0563964844" y="1007.4975585938" type="line"/>
			<point x="421.0563964844" y="928.5009765625" type="line"/>
			<point x="268.5678710938" y="905.5009765625" type="line"/>
			<point x="386.7506713867" y="540.5518798828" type="line"/>
			<point x="465.1434326172" y="265.6823120117" type="line"/>
			<point x="504.9928588867" y="106.4205322266" type="line"/>
			<point x="516.9928588867" y="106.4205322266" type="line"/>
			<point x="559.7589111328" y="265.6823120117" type="line"/>
			<point x="640.9172973633" y="536.7938232422" type="line"/>
			<point x="767.0449829102" y="905.5009765625" type="line"/>
			<point x="630.799621582" y="928.5009765625" type="line"/>
			<point x="630.799621582" y="1007.4975585938" type="line"/>
			<point x="1010.3330688477" y="1007.4975585938" type="line"/>
			<point x="1010.3330688477" y="918.5009765625" type="line"/>
			<point x="869.1143188477" y="895.5009765625" type="line"/>
			<point x="730.7064208984" y="499.1600341797" type="line"/>
			<point x="561.2176513672" y="-7" type="line"/>
			<point x="409.1907958984" y="-7" type="line"/>
			<point x="246.0866088867" y="489.7196044922" type="line"/>
			<point x="108.071105957" y="894.5009765625" type="line"/>
		</contour>
	</outline>
	<anchor name="bottom" x="513" y="0"/>
	<anchor name="top" x="513" y="1000"/>
</glyph>
<glyph name="w" format="2">
	<unicode hex="0077"/>
	<advance width="1418"/>
	<outline>
		<contour>
			<point x="381.1143188477" y="-7" type="line"/>
			<point x="235.6078491211" y="487.1145019531" type="line"/>
			<point x="107.071105957" y="897.5009765625" type="line"/>
			<point x="-45.4713745117" y="918.5009765625" type="line"/>
			<point x="-45.4713745117" y="1007.4975585938" type="line"/>
			<point x="408.4555053711" y="1007.4975585938" type="line"/>
			<point x="408.4555053711" y="931.5009765625" type="line"/>
			<point x="274.9669799805" y="901.5009765625" type="line"/>
			<point x="383.0189208984" y="534.6256103516" type="line"/>
			<point x="483" y="294" type="line"/>
			<point x="521" y="180" type="line"/>
			<point x="531" y="180" type="line"/>
			<point x="568" y="294" type="line"/>
			<point x="594.0123901367" y="498.2637329102" type="line"/>
			<point x="725" y="747" type="line"/>
			<point x="637.9456176758" y="900.5009765625" type="line"/>
			<point x="517.2952270508" y="931.5009765625" type="line"/>
			<point x="517.2952270508" y="1007.4975585938" type="line"/>
			<point x="916.4309082031" y="1007.4975585938" type="line"/>
			<point x="916.4309082031" y="931.5009765625" type="line"/>
			<point x="796.9423828125" y="900.5009765625" type="line"/>
			<point x="931.5748901367" y="467.6805419922" type="line"/>
			<point x="1045" y="294" type="line"/>
			<point x="1082" y="180" type="line"/>
			<point x="1092" y="180" type="line"/>
			<point x="1128" y="294" type="line"/>
			<point x="1120.4154663086" y="529.5791015625" type="line"/>
			<point x="1224.5800170898" y="902.5009765625" type="line"/>
			<point x="1100.3346557617" y="931.5009765625" type="line"/>
			<point x="1100.3346557617" y="1007.4975585938" type="line"/>
			<point x="1472.3063354492" y="1007.4975585938" type="line"/>
			<point x="1472.3063354492" y="918.5009765625" type="line"/>
			<point x="1331.0875854492" y="897.5009765625" type="line"/>
			<point x="1308" y="496" type="line"/>
			<point x="1057.0713500977" y="-7" type="line"/>
			<point x="925.1854248047" y="-7" type="line"/>
			<point x="830" y="480" type="line"/>
			<point x="790" y="595" type="line"/>
			<point x="780" y="595" type="line"/>
			<point x="741" y="480" type="line"/>
			<point x="517.9597167969" y="-7" type="line"/>
		</contour>
	</outline>
	<anchor name="bottom" x="787" y="0"/>
	<anchor name="top" x="787" y="1000"/>
</glyph>
<glyph name="x" format="2">
	<unicode hex="0078"/>
	<advance width="888"/>
	<outline>
		<contour>
			<point x="-29.510559082" y="0" type="line"/>
			<point x="-29.510559082" y="80.9965820312" type="line"/>
			<point x="116.9240112305" y="107.9965820312" type="line"/>
			<point x="444" y="480" type="line"/>
			<point x="129.924621582" y="897.5009765625" type="line"/>
			<point x="-10.725769043" y="918.5009765625" type="line"/>
			<point x="-10.725769043" y="1007.4975585938" type="line"/>
			<point x="449.1842651367" y="1007.4975585938" type="line"/>
			<point x="449.1842651367" y="921.5009765625" type="line"/>
			<point x="302.5878295898" y="903.5009765625" type="line"/>
			<point x="454" y="701" type="line"/>
			<point x="527" y="602" type="line"/>
			<point x="537" y="602" type="line"/>
			<point x="603" y="701" type="line"/>
			<point x="634.0093994141" y="900.5009765625" type="line"/>
			<point x="502.7640380859" y="921.5009765625" type="line"/>
			<point x="502.7640380859" y="1007.4975585938" type="line"/>
			<point x="855.1685791016" y="1007.4975585938" type="line"/>
			<point x="855.1685791016" y="918.5009765625" type="line"/>
			<point x="726.6260986328" y="897.5009765625" type="line"/>
			<point x="594" y="524" type="line"/>
			<point x="757.6239624023" y="107.9965820312" type="line"/>
			<point x="913.3556518555" y="80.9965820312" type="line"/>
			<point x="913.3556518555" y="0" type="line"/>
			<point x="448.3643188477" y="0" type="line"/>
			<point x="448.3643188477" y="80.9965820312" type="line"/>
			<point x="581.9607543945" y="102.9965820312" type="line"/>
			<point x="584" y="305" type="line"/>
			<point x="511" y="402" type="line"/>
			<point x="501" y="402" type="line"/>
			<point x="439" y="305" type="line"/>
			<point x="214.5407104492" y="107.9965820312" type="line"/>
			<point x="360.8939819336" y="80.9965820312" type="line"/>
			<point x="360.8939819336" y="0" type="line"/>
		</contour>
	</outline>
	<anchor name="bottom" x="522" y="0"/>
	<anchor name="top" x="522" y="1000"/>
	<anchor name="cy_descender" x="1043" y="80"/>
</glyph>
<glyph name="y" format="2">
	<unicode hex="0079"/>
	<advance width="928"/>
	<outline>
		<contour>
			<point x="-46.8040771484" y="916.5009765625" type="line"/>
			<point x="-46.8040771484" y="1007.4975585938" type="line"/>
			<point x="415.5568847656" y="1007.4975585938" type="line"/>
			<point x="415.5568847656" y="922.5009765625" type="line"/>
			<point x="282.068359375" y="899.5009765625" type="line"/>
			<point x="439.5206298828" y="528.0884399414" type="line"/>
			<point x="521.7247314453" y="342.231628418" type="line"/>
			<point x="570.1444091797" y="204.0137329102" type="line"/>
			<point x="582.1444091797" y="204.0137329102" type="line"/>
			<point x="619.6510620117" y="343.7282104492" type="line"/>
			<point x="673.3173217773" y="536.4877929688" type="line"/>
			<point x="795.2351074219" y="899.5009765625" type="line"/>
			<point x="654.9897460938" y="922.5009765625" type="line"/>
			<point x="654.9897460938" y="1007.4975585938" type="line"/>
			<point x="1027.8146972656" y="1007.4975585938" type="line"/>
			<point x="1027.8146972656" y="916.5009765625" type="line"/>
			<point x="886.5959472656" y="893.5009765625" type="line"/>
			<point x="754.1615600586" y="499.578125" type="line"/>
			<point x="559.0354003906" y="-64" type="line" smooth="yes"/>
			<point x="482.3715209961" y="-323.0219726562"/>
			<point x="330.8703613281" y="-491"/>
			<point x="231.0651855469" y="-491" type="qcurve"/>
			<point x="96.7351074219" y="-464" type="line"/>
			<point x="96.7351074219" y="-364.130859375" type="line"/>
			<point x="192.9851074219" y="-366.130859375" type="line" smooth="yes"/>
			<point x="308.6115722656" y="-369.130859375"/>
			<point x="416.7546386719" y="-249.427734375"/>
			<point x="461.8562011719" y="-104.4389648438" type="qcurve" smooth="yes"/>
			<point x="545.3034667969" y="2.8330078125" type="line"/>
			<point x="545.3034667969" y="2.8330078125" type="line"/>
			<point x="299.356628418" y="459.9228515625" type="line"/>
			<point x="117.7384033203" y="892.5009765625" type="line"/>
		</contour>
	</outline>
	<anchor name="bottom" x="782" y="0"/>
	<anchor name="top" x="524" y="1000"/>
</glyph>
<glyph name="idotless" format="2">
	<unicode hex="0131"/>
	<advance width="625"/>
	<outline>
		<contour>
			<point x="75.8605957031" y="0" type="line"/>
			<point x="75.8605957031" y="79.9965820312" type="line"/>
			<point x="244.6477050781" y="107.9965820312" type="line"/>
			<point x="247.3143310547" y="549.4700927734" type="line"/>
			<point x="242.6610717773" y="873.8347167969" type="line"/>
			<point x="61.8605957031" y="892.8347167969" type="line"/>
			<point x="61.8605957031" y="983.0471191406" type="line"/>
			<point x="371.3120117188" y="1010.4975585938" type="line"/>
			<point x="398.6446533203" y="1008.4975585938" type="line"/>
			<point x="415.6442871094" y="968.4982299805" type="line"/>
			<point x="410.3110961914" y="549.4700927734" type="line"/>
			<point x="417.977722168" y="107.9965820312" type="line"/>
			<point x="581.764831543" y="79.9965820312" type="line"/>
			<point x="581.764831543" y="0" type="line"/>
		</contour>
	</outline>
	<anchor name="bottom" x="320" y="0"/>
	<anchor name="top" x="320" y="1000"/>
	<anchor name="ogonek" x="513" y="0"/>
	<anchor name="liga" x="639" y="0"/>
</glyph>
<glyph name="jdotless" format="2">
	<advance width="582"/>
	<outline>
		<contour>
			<point x="-25.2849731445" y="-481" type="qcurve"/>
			<point x="-24.618347168" y="-388.8831787109" type="line"/>
			<point x="98.1768188477" y="-399.9776611328"/>
			<point x="213.9766235352" y="-321.8733520508"/>
			<point x="215.056640625" y="-176.475769043" type="qcurve" smooth="yes"/>
			<point x="218.3900146484" y="552" type="line"/>
			<point x="213.0700683594" y="874.1680297852" type="line"/>
			<point x="31.6029052734" y="891.8347167969" type="line"/>
			<point x="31.6029052734" y="983.0471191406" type="line"/>
			<point x="341.7210083008" y="1010.4975585938" type="line"/>
			<point x="369.0536499023" y="1008.4975585938" type="line"/>
			<point x="387.0532836914" y="968.4982299805" type="line"/>
			<point x="383.0534057617" y="552" type="line"/>
			<point x="389.7200317383" y="-172.1594848633" type="line" smooth="yes"/>
			<point x="391.0533447266" y="-343.4331054688"/>
			<point x="180.5432128906" y="-499"/>
		</contour>
	</outline>
	<anchor name="bottom" x="278" y="-436"/>
	<anchor name="top" x="278" y="1000"/>
	<anchor name="_liga" x="0" y="0"/>
</glyph>
